HIERARCHY
ROOT SpineBase
{
  OFFSET 0.000000 0.000000 0.000000
  CHANNELS 6 Xposition Yposition Zposition Zrotation Xrotation Yrotation
  JOINT SpineMid
  {
    OFFSET -0.000000 33.457436 -0.000000
    CHANNELS 3 Zrotation Xrotation Yrotation
    JOINT SpineShoulder
    {
      OFFSET 0.033472 24.725519 -0.787650
      CHANNELS 3 Zrotation Xrotation Yrotation
      JOINT Neck
      {
        OFFSET 0.020739 8.140080 -0.588767
        CHANNELS 3 Zrotation Xrotation Yrotation
        JOINT Head
        {
          OFFSET 8.527503 9.561480 7.424198
          CHANNELS 3 Zrotation Xrotation Yrotation
          End Site
          {
            OFFSET 0 0 0
          }
        }
      }
      JOINT ShoulderLeft
      {
        OFFSET -4.990444 -4.923153 -14.880995
        CHANNELS 3 Zrotation Xrotation Yrotation
        JOINT ElbowLeft
        {
          OFFSET -0.235948 -26.824336 -8.345728
          CHANNELS 3 Zrotation Xrotation Yrotation
          JOINT WristLeft
          {
            OFFSET 5.998572 -24.384537 -1.598682
            CHANNELS 3 Zrotation Xrotation Yrotation
            JOINT HandLeft
            {
              OFFSET 0.050541 -7.966740 1.662405
              CHANNELS 3 Zrotation Xrotation Yrotation
              JOINT HandTipLeft
              {
                OFFSET 2.238567 -8.164362 1.165238
                CHANNELS 3 Zrotation Xrotation Yrotation
                End Site
                {
                  OFFSET 0 0 0
                }
              }
              JOINT ThumbLeft
              {
                OFFSET 4.971644 0.493756 -2.805611
                CHANNELS 3 Zrotation Xrotation Yrotation
                End Site
                {
                  OFFSET 0 0 0
                }
              }
            }
          }
        }
      }
      JOINT ShoulderRight
      {
        OFFSET 8.063287 -4.714279 9.188709
        CHANNELS 3 Zrotation Xrotation Yrotation
        JOINT ElbowRight
        {
          OFFSET -2.531675 -17.022775 -31.228111
          CHANNELS 3 Zrotation Xrotation Yrotation
          JOINT WristRight
          {
            OFFSET 1.990221 13.366948 21.265520
            CHANNELS 3 Zrotation Xrotation Yrotation
            JOINT HandRight
            {
              OFFSET -2.309639 3.051896 0.765521
              CHANNELS 3 Zrotation Xrotation Yrotation
              JOINT HandTipRight
              {
                OFFSET -0.730094 3.213388 1.603063
                CHANNELS 3 Zrotation Xrotation Yrotation
                End Site
                {
                  OFFSET 0 0 0
                }
              }
              JOINT ThumbRight
              {
                OFFSET -1.899995 4.746689 -4.686039
                CHANNELS 3 Zrotation Xrotation Yrotation
                End Site
                {
                  OFFSET 0 0 0
                }
              }
            }
          }
        }
      }
    }
  }
  JOINT HipLeft
  {
    OFFSET -3.711440 1.208286 -9.307452
    CHANNELS 3 Zrotation Xrotation Yrotation
    JOINT KneeLeft
    {
      OFFSET -4.304663 -36.410627 -5.951140
      CHANNELS 3 Zrotation Xrotation Yrotation
      JOINT AnkleLeft
      {
        OFFSET -9.223348 -36.706025 1.265863
        CHANNELS 3 Zrotation Xrotation Yrotation
        JOINT FootLeft
        {
          OFFSET 3.664737 -7.364941 -0.709419
          CHANNELS 3 Zrotation Xrotation Yrotation
          End Site
          {
            OFFSET 0 0 0
          }
        }
      }
    }
  }
  JOINT HipRight
  {
    OFFSET 3.934132 0.984192 1.494768
    CHANNELS 3 Zrotation Xrotation Yrotation
    JOINT KneeRight
    {
      OFFSET -20.548123 -37.357840 2.981986
      CHANNELS 3 Zrotation Xrotation Yrotation
      JOINT AnkleRight
      {
        OFFSET -4.289132 -29.852186 1.758841
        CHANNELS 3 Zrotation Xrotation Yrotation
        JOINT FootRight
        {
          OFFSET 5.718133 -9.038207 -9.868926
          CHANNELS 3 Zrotation Xrotation Yrotation
          End Site
          {
            OFFSET 0 0 0
          }
        }
      }
    }
  }
}
MOTION
Frames: 12
Frame Time: 0.033333
-6.768461 78.789329 301.449005 -3.477493 3.799341 -48.304808 -0.727011 0.021830 48.290141 0.001981 -0.150578 -0.169976 5.551762 -5.174445 0.238304 0.000000 0.000000 0.000000 1.155835 1.175573 1.171544 -1.312520 -0.780096 0.510022 0.448063 -3.759500 -2.234063 4.561804 8.294773 3.365970 0.000000 0.000000 0.000000 0.000000 0.000000 0.000000 14.739781 11.684281 -18.161459 -24.309881 31.042606 17.428622 2.978286 -2.651254 37.983362 46.209320 31.492945 -29.858376 0.000000 0.000000 0.000000 0.000000 0.000000 0.000000 1.846359 2.796716 48.021748 -1.372036 -2.528222 -0.101313 -3.374989 -0.636530 1.482397 0.000000 0.000000 0.000000 3.826200 -1.011468 48.125894 21.853769 -1.697201 2.097546 -22.790905 -2.840925 -1.445427 0.000000 0.000000 0.000000
-6.530661 78.553495 302.462812 -4.334472 4.932636 -53.617093 -0.700336 -0.001196 53.648478 0.059418 -0.200486 -0.200104 6.756448 -6.353229 0.194694 0.000000 0.000000 0.000000 1.357788 1.243065 1.408685 -0.945361 -0.345155 0.787051 0.790994 -3.231593 -2.544867 4.867301 11.218826 4.850599 0.000000 0.000000 0.000000 0.000000 0.000000 0.000000 18.209723 23.941633 -21.503858 -13.128206 25.833577 5.675310 -0.813022 -5.993290 46.137182 55.344223 43.987617 -40.810256 0.000000 0.000000 0.000000 0.000000 0.000000 0.000000 3.489603 2.467990 53.475000 -1.497256 -1.046148 -0.383726 -4.003003 0.999594 3.055445 0.000000 0.000000 0.000000 4.124137 -0.293277 52.826308 22.820985 -5.945974 4.324438 -10.560322 5.574768 -11.966601 0.000000 0.000000 0.000000
-6.191735 78.434819 303.577498 -5.002021 5.920743 -58.520468 -0.609428 -0.029847 58.604508 0.108020 -0.247726 -0.221656 7.358454 -6.947644 0.048052 0.000000 0.000000 0.000000 1.279350 1.143548 1.639851 -0.354654 0.464908 1.067755 0.916836 -3.477394 -2.893955 7.255726 15.229547 6.473216 0.000000 0.000000 0.000000 0.000000 0.000000 0.000000 23.048030 30.611804 -26.789806 -5.998199 20.221934 -0.185214 -4.885743 -10.933379 49.902718 78.657015 61.380213 -65.794858 0.000000 0.000000 0.000000 0.000000 0.000000 0.000000 5.291642 2.137126 58.539830 -1.684794 0.940728 -0.729426 -4.373546 2.929090 4.901081 0.000000 0.000000 0.000000 4.025929 0.627846 57.038413 22.278847 -10.600100 6.584462 0.319254 10.960684 -21.417390 0.000000 0.000000 0.000000
-5.712924 78.509028 304.790413 -5.694783 6.952394 -62.418876 -0.529436 -0.066557 62.567245 0.124376 -0.275443 -0.248922 7.778979 -7.266491 -0.198519 0.000000 0.000000 0.000000 0.732325 1.088169 2.022282 0.796650 0.678375 1.090413 0.245824 -4.865517 -3.414375 9.860367 16.815243 6.959332 0.000000 0.000000 0.000000 0.000000 0.000000 0.000000 29.089309 32.475788 -33.453014 -7.266580 21.954829 -0.628351 -5.306714 -19.769095 51.905082 109.443372 68.490965 -98.487402 0.000000 0.000000 0.000000 0.000000 0.000000 0.000000 7.311139 1.852742 62.625296 -1.738674 3.163751 -1.112490 -4.989107 4.576700 6.716560 0.000000 0.000000 0.000000 4.033112 1.618216 60.330914 22.948953 -13.486359 8.454063 3.896593 16.328171 -23.602283 0.000000 0.000000 0.000000
-5.139130 78.835800 306.060617 -6.353140 7.859981 -65.196265 -0.349050 -0.088526 65.412556 0.137096 -0.308337 -0.273867 7.833461 -7.283071 -0.353153 0.000000 0.000000 0.000000 -0.192851 1.055743 2.463221 2.298847 0.566430 0.923561 -0.532946 -5.829842 -3.849647 10.795239 16.844104 6.992769 0.000000 0.000000 0.000000 0.000000 0.000000 0.000000 35.018509 28.772786 -40.527009 -13.018855 27.046214 0.800045 -9.908969 -30.694303 50.788726 -148.284386 50.058558 129.282399 0.000000 0.000000 0.000000 0.000000 0.000000 0.000000 9.044605 1.693448 65.574998 -1.582172 5.143554 -1.478894 -6.087288 6.060240 8.503117 0.000000 0.000000 0.000000 4.168932 2.664966 62.669550 23.357869 -14.728138 9.635311 3.973927 21.379117 -21.514199 0.000000 0.000000 0.000000
-4.354831 79.510859 307.331467 -6.674590 8.396342 -66.328169 -0.048370 -0.159367 66.576385 0.209727 -0.428037 -0.280878 6.526729 -5.775619 -0.815678 0.000000 0.000000 0.000000 -1.627286 1.301645 2.899216 3.756599 -0.014309 0.525326 -1.920708 -6.558969 -4.375564 12.656712 14.717138 6.461980 0.000000 0.000000 0.000000 0.000000 0.000000 0.000000 37.119283 14.712508 -45.081509 -28.071579 39.978061 6.674496 -108.984753 -35.410287 -34.808747 -107.234105 5.844440 -58.448485 0.000000 0.000000 0.000000 0.000000 0.000000 0.000000 8.954523 1.413695 66.823677 -0.862491 5.682263 -1.780595 -11.529660 4.138321 8.763184 0.000000 0.000000 0.000000 4.814324 3.521997 63.803330 22.879881 -13.416403 9.302168 1.376122 20.486970 -18.600858 0.000000 0.000000 0.000000
-3.736877 79.494378 308.526499 -7.146456 8.757489 -64.789191 -0.024893 -0.038428 65.093468 0.096144 -0.152804 -0.297291 5.459732 -5.303452 -0.716211 0.000000 0.000000 0.000000 -2.550935 0.772620 3.248944 4.443859 -0.434008 0.148987 -3.346806 -8.010983 -5.137030 14.596515 15.154789 6.259576 0.000000 0.000000 0.000000 0.000000 0.000000 0.000000 37.213949 -26.512120 -56.411373 23.366674 -41.309439 177.985208 -79.468569 61.181473 8.575630 0.409829 -42.476992 -43.013768 0.000000 0.000000 0.000000 0.000000 0.000000 0.000000 7.959585 1.532401 65.312284 -0.386112 4.990645 -1.910498 -11.717206 5.703512 10.358055 0.000000 0.000000 0.000000 6.109110 3.647532 62.635539 21.944199 -11.898693 8.239092 1.817641 21.959761 -17.059733 0.000000 0.000000 0.000000
-3.319286 78.962850 309.396981 -7.586535 8.869273 -59.607871 -0.034543 0.192334 59.968483 -0.026894 0.154092 -0.307296 3.598645 -4.200457 -0.624724 0.000000 0.000000 0.000000 -3.064554 0.392954 3.461585 4.439403 -1.090011 -0.198364 -5.172157 -8.497401 -6.004953 16.590005 14.210393 6.068412 0.000000 0.000000 0.000000 0.000000 0.000000 0.000000 24.086112 -60.317801 -63.593413 21.085820 0.054394 139.453195 -92.278044 33.487738 14.289575 36.336324 -29.149226 -1.038595 0.000000 0.000000 0.000000 0.000000 0.000000 0.000000 6.170057 1.878935 60.103615 -0.029415 3.339869 -1.909071 -4.103076 12.481802 13.585742 0.000000 0.000000 0.000000 8.161842 2.578043 58.324586 20.595333 -9.103007 6.068203 2.188361 18.029797 -17.397383 0.000000 0.000000 0.000000
-3.278996 77.964049 310.011617 -8.388276 9.320082 -53.667412 0.006162 0.357228 54.121129 -0.038396 0.162453 -0.335071 3.041365 -4.341113 -0.100716 0.000000 0.000000 0.000000 -2.935341 -0.363473 3.603019 4.125951 -0.851049 -0.325457 -6.020794 -9.098305 -6.681744 16.663212 13.908395 6.001185 0.000000 0.000000 0.000000 0.000000 0.000000 0.000000 1.413966 -76.744520 -79.011682 25.812799 11.044062 111.602087 -90.707420 18.759773 23.113889 41.728828 -21.481121 3.013976 0.000000 0.000000 0.000000 0.000000 0.000000 0.000000 5.646877 2.690465 54.164774 -0.032118 2.030597 -1.863664 1.905560 17.198813 15.122501 0.000000 0.000000 0.000000 10.515701 1.123398 53.348103 19.842502 -6.766116 4.232183 2.418879 16.752243 -16.951320 0.000000 0.000000 0.000000
-3.238161 77.101351 310.720042 -8.985730 9.399436 -48.273530 -0.052580 0.461620 48.777857 -0.097650 0.242312 -0.361588 3.082106 -4.453107 0.203400 0.000000 0.000000 0.000000 -2.377198 -0.897804 3.665503 3.503699 -0.530326 -0.332526 -5.584221 -9.139538 -6.800649 15.553863 14.390746 6.199398 0.000000 0.000000 0.000000 0.000000 0.000000 0.000000 -27.766019 -81.946017 -104.988992 26.422823 12.576483 98.662905 -89.099022 12.046354 25.522501 43.238283 -18.888903 3.968226 0.000000 0.000000 0.000000 0.000000 0.000000 0.000000 5.268537 3.578248 48.759656 -0.059490 0.994260 -1.813709 5.663619 20.024134 15.823967 0.000000 0.000000 0.000000 11.895943 -0.325226 48.714275 19.243815 -4.553412 2.742838 2.629655 15.383554 -16.374287 0.000000 0.000000 0.000000
-3.156496 76.329630 311.381569 -9.348037 9.329277 -43.939944 -0.126081 0.544837 44.466596 -0.155193 0.335839 -0.378382 2.350793 -4.122124 0.577680 0.000000 0.000000 0.000000 -1.827012 -0.987344 3.699900 2.964618 -0.474466 -0.284616 -4.191492 -8.489682 -6.410611 13.774897 15.625340 6.740453 0.000000 0.000000 0.000000 0.000000 0.000000 0.000000 -32.769365 -82.488925 -109.797470 29.387397 9.972813 89.252718 -86.752626 3.291037 30.140708 42.666608 -20.154811 3.702695 0.000000 0.000000 0.000000 0.000000 0.000000 0.000000 4.640939 4.458546 44.413858 0.074199 -0.155122 -1.751428 7.787932 21.572251 16.168342 0.000000 0.000000 0.000000 12.834803 -1.717558 45.088328 18.594154 -2.145528 1.285039 2.932612 13.766375 -15.742367 0.000000 0.000000 0.000000
-2.838756 75.992581 312.304973 -9.393011 8.965664 -43.974951 -0.308307 0.582498 44.475389 -0.202232 0.386168 -0.386886 1.615683 -3.664237 0.931691 0.000000 0.000000 0.000000 -1.403600 -0.762321 3.706080 2.701866 -0.250930 -0.149633 -2.684809 -8.033605 -5.913623 13.871043 17.381203 7.257883 0.000000 0.000000 0.000000 0.000000 0.000000 0.000000 -2.543203 -78.741480 -82.739889 29.743735 8.742654 97.150911 -88.708369 3.878578 28.023981 43.222628 -20.535241 1.427679 0.000000 0.000000 0.000000 0.000000 0.000000 0.000000 3.658800 5.140242 44.445428 0.365329 -0.596642 -1.775951 7.949906 21.615595 16.419241 0.000000 0.000000 0.000000 12.721757 -1.508479 45.142054 17.924215 -0.309803 0.613549 3.343893 12.000090 -15.055406 0.000000 0.000000 0.000000
